<mxfile host="app.diagrams.net" modified="2023-12-22T15:17:50.782Z" agent="Mozilla/5.0 (Windows NT 10.0; Win64; x64) AppleWebKit/537.36 (KHTML, like Gecko) Chrome/120.0.0.0 Safari/537.36" etag="8ME6DvOmpR7PCu2XWV6T" version="22.1.11" type="device">
  <diagram name="Страница — 1" id="fO-ICsC2m7DMqFjzDLTR">
    <mxGraphModel dx="2013" dy="847" grid="0" gridSize="10" guides="0" tooltips="1" connect="1" arrows="0" fold="1" page="0" pageScale="1" pageWidth="827" pageHeight="1169" math="0" shadow="0">
      <root>
        <mxCell id="0" />
        <mxCell id="1" parent="0" />
        <mxCell id="PhGYONGd7VdfMWZIVttG-94" value="" style="group;shadow=0;" parent="1" vertex="1" connectable="0">
          <mxGeometry x="40" y="40" width="320" height="430" as="geometry" />
        </mxCell>
        <mxCell id="PhGYONGd7VdfMWZIVttG-1" value="" style="rounded=0;whiteSpace=wrap;html=1;shadow=0;" parent="PhGYONGd7VdfMWZIVttG-94" vertex="1">
          <mxGeometry width="320" height="430" as="geometry" />
        </mxCell>
        <mxCell id="PhGYONGd7VdfMWZIVttG-2" value="&lt;font style=&quot;font-size: 15px;&quot;&gt;&amp;lt;&amp;lt;device&amp;gt;&amp;gt;&lt;/font&gt;" style="text;html=1;strokeColor=none;fillColor=none;align=center;verticalAlign=middle;whiteSpace=wrap;rounded=0;shadow=0;" parent="PhGYONGd7VdfMWZIVttG-94" vertex="1">
          <mxGeometry width="320" height="30" as="geometry" />
        </mxCell>
        <mxCell id="PhGYONGd7VdfMWZIVttG-4" value="&lt;font style=&quot;font-size: 19px;&quot;&gt;Api&lt;/font&gt;" style="text;html=1;strokeColor=none;fillColor=none;align=center;verticalAlign=middle;whiteSpace=wrap;rounded=0;fontStyle=1;shadow=0;" parent="PhGYONGd7VdfMWZIVttG-94" vertex="1">
          <mxGeometry y="40" width="320" height="30" as="geometry" />
        </mxCell>
        <mxCell id="PhGYONGd7VdfMWZIVttG-15" value="" style="rounded=0;whiteSpace=wrap;html=1;shadow=0;" parent="PhGYONGd7VdfMWZIVttG-94" vertex="1">
          <mxGeometry x="20" y="100" width="280" height="310" as="geometry" />
        </mxCell>
        <mxCell id="PhGYONGd7VdfMWZIVttG-14" value="" style="group;movable=1;resizable=1;rotatable=1;deletable=1;editable=1;locked=0;connectable=1;shadow=0;" parent="PhGYONGd7VdfMWZIVttG-94" vertex="1" connectable="0">
          <mxGeometry x="250" y="10" width="60" height="60" as="geometry" />
        </mxCell>
        <mxCell id="PhGYONGd7VdfMWZIVttG-5" value="" style="endArrow=none;html=1;rounded=0;movable=0;resizable=0;rotatable=0;deletable=0;editable=0;locked=1;connectable=0;" parent="PhGYONGd7VdfMWZIVttG-14" edge="1">
          <mxGeometry width="50" height="50" relative="1" as="geometry">
            <mxPoint x="30" y="60" as="sourcePoint" />
            <mxPoint x="30" y="20" as="targetPoint" />
          </mxGeometry>
        </mxCell>
        <mxCell id="PhGYONGd7VdfMWZIVttG-6" value="" style="endArrow=none;html=1;rounded=0;shadow=0;" parent="PhGYONGd7VdfMWZIVttG-14" edge="1">
          <mxGeometry width="50" height="50" relative="1" as="geometry">
            <mxPoint x="30" y="60" as="sourcePoint" />
            <mxPoint x="60" y="50" as="targetPoint" />
          </mxGeometry>
        </mxCell>
        <mxCell id="PhGYONGd7VdfMWZIVttG-7" value="" style="endArrow=none;html=1;rounded=0;shadow=0;" parent="PhGYONGd7VdfMWZIVttG-14" edge="1">
          <mxGeometry width="50" height="50" relative="1" as="geometry">
            <mxPoint x="30" y="60" as="sourcePoint" />
            <mxPoint y="50" as="targetPoint" />
          </mxGeometry>
        </mxCell>
        <mxCell id="PhGYONGd7VdfMWZIVttG-8" value="" style="endArrow=none;html=1;rounded=0;shadow=0;" parent="PhGYONGd7VdfMWZIVttG-14" edge="1">
          <mxGeometry width="50" height="50" relative="1" as="geometry">
            <mxPoint y="50" as="sourcePoint" />
            <mxPoint y="10" as="targetPoint" />
          </mxGeometry>
        </mxCell>
        <mxCell id="PhGYONGd7VdfMWZIVttG-9" value="" style="endArrow=none;html=1;rounded=0;shadow=0;" parent="PhGYONGd7VdfMWZIVttG-14" edge="1">
          <mxGeometry width="50" height="50" relative="1" as="geometry">
            <mxPoint x="60" y="50" as="sourcePoint" />
            <mxPoint x="60" y="10" as="targetPoint" />
          </mxGeometry>
        </mxCell>
        <mxCell id="PhGYONGd7VdfMWZIVttG-10" value="" style="endArrow=none;html=1;rounded=0;shadow=0;" parent="PhGYONGd7VdfMWZIVttG-14" edge="1">
          <mxGeometry width="50" height="50" relative="1" as="geometry">
            <mxPoint x="30" y="20" as="sourcePoint" />
            <mxPoint x="60" y="10" as="targetPoint" />
          </mxGeometry>
        </mxCell>
        <mxCell id="PhGYONGd7VdfMWZIVttG-11" value="" style="endArrow=none;html=1;rounded=0;shadow=0;" parent="PhGYONGd7VdfMWZIVttG-14" edge="1">
          <mxGeometry width="50" height="50" relative="1" as="geometry">
            <mxPoint x="30" y="20" as="sourcePoint" />
            <mxPoint y="10" as="targetPoint" />
          </mxGeometry>
        </mxCell>
        <mxCell id="PhGYONGd7VdfMWZIVttG-12" value="" style="endArrow=none;html=1;rounded=0;shadow=0;" parent="PhGYONGd7VdfMWZIVttG-14" edge="1">
          <mxGeometry width="50" height="50" relative="1" as="geometry">
            <mxPoint x="60" y="10" as="sourcePoint" />
            <mxPoint x="30" as="targetPoint" />
          </mxGeometry>
        </mxCell>
        <mxCell id="PhGYONGd7VdfMWZIVttG-13" value="" style="endArrow=none;html=1;rounded=0;shadow=0;" parent="PhGYONGd7VdfMWZIVttG-14" edge="1">
          <mxGeometry width="50" height="50" relative="1" as="geometry">
            <mxPoint y="10" as="sourcePoint" />
            <mxPoint x="30" as="targetPoint" />
          </mxGeometry>
        </mxCell>
        <mxCell id="PhGYONGd7VdfMWZIVttG-16" value="&lt;font style=&quot;font-size: 16px;&quot;&gt;&amp;lt;&amp;lt;artifact&amp;gt;&amp;gt;&lt;/font&gt;" style="text;html=1;strokeColor=none;fillColor=none;align=center;verticalAlign=middle;whiteSpace=wrap;rounded=0;shadow=0;" parent="PhGYONGd7VdfMWZIVttG-94" vertex="1">
          <mxGeometry x="130" y="100" width="60" height="30" as="geometry" />
        </mxCell>
        <mxCell id="PhGYONGd7VdfMWZIVttG-47" value="&lt;font style=&quot;font-size: 15px;&quot;&gt;BaseController.cs&lt;/font&gt;" style="text;html=1;strokeColor=none;fillColor=none;align=center;verticalAlign=middle;whiteSpace=wrap;rounded=0;fontStyle=1;shadow=0;" parent="PhGYONGd7VdfMWZIVttG-94" vertex="1">
          <mxGeometry x="20" y="130" width="280" height="20" as="geometry" />
        </mxCell>
        <mxCell id="PhGYONGd7VdfMWZIVttG-48" value="&lt;font style=&quot;font-size: 15px;&quot;&gt;CompletedWorkController.cs&lt;/font&gt;" style="text;html=1;strokeColor=none;fillColor=none;align=center;verticalAlign=middle;whiteSpace=wrap;rounded=0;fontStyle=1;shadow=0;" parent="PhGYONGd7VdfMWZIVttG-94" vertex="1">
          <mxGeometry x="20" y="150" width="280" height="20" as="geometry" />
        </mxCell>
        <mxCell id="PhGYONGd7VdfMWZIVttG-49" value="&lt;font style=&quot;font-size: 15px;&quot;&gt;CourseController.cs&lt;/font&gt;" style="text;html=1;strokeColor=none;fillColor=none;align=center;verticalAlign=middle;whiteSpace=wrap;rounded=0;fontStyle=1;shadow=0;" parent="PhGYONGd7VdfMWZIVttG-94" vertex="1">
          <mxGeometry x="20" y="170" width="280" height="20" as="geometry" />
        </mxCell>
        <mxCell id="PhGYONGd7VdfMWZIVttG-50" value="&lt;font style=&quot;font-size: 15px;&quot;&gt;DisciplineController.cs&lt;/font&gt;" style="text;html=1;strokeColor=none;fillColor=none;align=center;verticalAlign=middle;whiteSpace=wrap;rounded=0;fontStyle=1;shadow=0;" parent="PhGYONGd7VdfMWZIVttG-94" vertex="1">
          <mxGeometry x="20" y="190" width="280" height="20" as="geometry" />
        </mxCell>
        <mxCell id="PhGYONGd7VdfMWZIVttG-52" value="&lt;font style=&quot;font-size: 15px;&quot;&gt;SemesterController.cs&lt;/font&gt;" style="text;html=1;strokeColor=none;fillColor=none;align=center;verticalAlign=middle;whiteSpace=wrap;rounded=0;fontStyle=1;shadow=0;" parent="PhGYONGd7VdfMWZIVttG-94" vertex="1">
          <mxGeometry x="20" y="250" width="280" height="20" as="geometry" />
        </mxCell>
        <mxCell id="PhGYONGd7VdfMWZIVttG-53" value="&lt;font style=&quot;font-size: 15px;&quot;&gt;MarkController.cs&lt;/font&gt;" style="text;html=1;strokeColor=none;fillColor=none;align=center;verticalAlign=middle;whiteSpace=wrap;rounded=0;fontStyle=1;shadow=0;" parent="PhGYONGd7VdfMWZIVttG-94" vertex="1">
          <mxGeometry x="20" y="230" width="280" height="20" as="geometry" />
        </mxCell>
        <mxCell id="PhGYONGd7VdfMWZIVttG-54" value="&lt;font style=&quot;font-size: 15px;&quot;&gt;GroupController.cs&lt;/font&gt;" style="text;html=1;strokeColor=none;fillColor=none;align=center;verticalAlign=middle;whiteSpace=wrap;rounded=0;fontStyle=1;shadow=0;" parent="PhGYONGd7VdfMWZIVttG-94" vertex="1">
          <mxGeometry x="20" y="210" width="280" height="20" as="geometry" />
        </mxCell>
        <mxCell id="PhGYONGd7VdfMWZIVttG-55" value="&lt;font style=&quot;font-size: 15px;&quot;&gt;StudentController.cs&lt;/font&gt;" style="text;html=1;strokeColor=none;fillColor=none;align=center;verticalAlign=middle;whiteSpace=wrap;rounded=0;fontStyle=1;shadow=0;" parent="PhGYONGd7VdfMWZIVttG-94" vertex="1">
          <mxGeometry x="20" y="270" width="280" height="20" as="geometry" />
        </mxCell>
        <mxCell id="PhGYONGd7VdfMWZIVttG-56" value="&lt;font style=&quot;font-size: 15px;&quot;&gt;TaskController.cs&lt;/font&gt;" style="text;html=1;strokeColor=none;fillColor=none;align=center;verticalAlign=middle;whiteSpace=wrap;rounded=0;fontStyle=1;shadow=0;" parent="PhGYONGd7VdfMWZIVttG-94" vertex="1">
          <mxGeometry x="20" y="290" width="280" height="20" as="geometry" />
        </mxCell>
        <mxCell id="PhGYONGd7VdfMWZIVttG-57" value="&lt;font style=&quot;font-size: 15px;&quot;&gt;TeacherController.cs&lt;/font&gt;" style="text;html=1;strokeColor=none;fillColor=none;align=center;verticalAlign=middle;whiteSpace=wrap;rounded=0;fontStyle=1;shadow=0;" parent="PhGYONGd7VdfMWZIVttG-94" vertex="1">
          <mxGeometry x="20" y="310" width="280" height="20" as="geometry" />
        </mxCell>
        <mxCell id="PhGYONGd7VdfMWZIVttG-58" value="&lt;font style=&quot;font-size: 15px;&quot;&gt;UserController.cs&lt;/font&gt;" style="text;html=1;strokeColor=none;fillColor=none;align=center;verticalAlign=middle;whiteSpace=wrap;rounded=0;fontStyle=1;shadow=0;" parent="PhGYONGd7VdfMWZIVttG-94" vertex="1">
          <mxGeometry x="20" y="330" width="280" height="20" as="geometry" />
        </mxCell>
        <mxCell id="PhGYONGd7VdfMWZIVttG-60" value="&lt;font style=&quot;font-size: 15px;&quot;&gt;WorkTypeController.cs&lt;/font&gt;" style="text;html=1;strokeColor=none;fillColor=none;align=center;verticalAlign=middle;whiteSpace=wrap;rounded=0;fontStyle=1;shadow=0;" parent="PhGYONGd7VdfMWZIVttG-94" vertex="1">
          <mxGeometry x="20" y="370" width="280" height="20" as="geometry" />
        </mxCell>
        <mxCell id="PhGYONGd7VdfMWZIVttG-61" value="&lt;font style=&quot;font-size: 15px;&quot;&gt;WorkController.cs&lt;/font&gt;" style="text;html=1;strokeColor=none;fillColor=none;align=center;verticalAlign=middle;whiteSpace=wrap;rounded=0;fontStyle=1;shadow=0;" parent="PhGYONGd7VdfMWZIVttG-94" vertex="1">
          <mxGeometry x="20" y="350" width="280" height="20" as="geometry" />
        </mxCell>
        <mxCell id="PhGYONGd7VdfMWZIVttG-95" value="" style="group;shadow=0;" parent="1" vertex="1" connectable="0">
          <mxGeometry x="530" y="100" width="320" height="310" as="geometry" />
        </mxCell>
        <mxCell id="PhGYONGd7VdfMWZIVttG-32" value="" style="rounded=0;whiteSpace=wrap;html=1;shadow=0;" parent="PhGYONGd7VdfMWZIVttG-95" vertex="1">
          <mxGeometry width="320" height="310" as="geometry" />
        </mxCell>
        <mxCell id="PhGYONGd7VdfMWZIVttG-33" value="&lt;font style=&quot;font-size: 15px;&quot;&gt;&amp;lt;&amp;lt;device&amp;gt;&amp;gt;&lt;/font&gt;" style="text;html=1;strokeColor=none;fillColor=none;align=center;verticalAlign=middle;whiteSpace=wrap;rounded=0;shadow=0;" parent="PhGYONGd7VdfMWZIVttG-95" vertex="1">
          <mxGeometry width="320" height="30" as="geometry" />
        </mxCell>
        <mxCell id="PhGYONGd7VdfMWZIVttG-34" value="&lt;span style=&quot;font-size: 19px;&quot;&gt;Database&lt;/span&gt;" style="text;html=1;strokeColor=none;fillColor=none;align=center;verticalAlign=middle;whiteSpace=wrap;rounded=0;fontStyle=1;shadow=0;" parent="PhGYONGd7VdfMWZIVttG-95" vertex="1">
          <mxGeometry y="40" width="320" height="30" as="geometry" />
        </mxCell>
        <mxCell id="PhGYONGd7VdfMWZIVttG-45" value="&lt;font style=&quot;font-size: 16px;&quot;&gt;&lt;b&gt;PostgreSQL&lt;/b&gt;&lt;/font&gt;" style="rounded=0;whiteSpace=wrap;html=1;shadow=0;" parent="PhGYONGd7VdfMWZIVttG-95" vertex="1">
          <mxGeometry x="20" y="100" width="280" height="190" as="geometry" />
        </mxCell>
        <mxCell id="PhGYONGd7VdfMWZIVttG-35" value="" style="group;movable=1;resizable=1;rotatable=1;deletable=1;editable=1;locked=0;connectable=1;shadow=0;" parent="PhGYONGd7VdfMWZIVttG-95" vertex="1" connectable="0">
          <mxGeometry x="250" y="10" width="60" height="60" as="geometry" />
        </mxCell>
        <mxCell id="PhGYONGd7VdfMWZIVttG-36" value="" style="endArrow=none;html=1;rounded=0;movable=0;resizable=0;rotatable=0;deletable=0;editable=0;locked=1;connectable=0;" parent="PhGYONGd7VdfMWZIVttG-35" edge="1">
          <mxGeometry width="50" height="50" relative="1" as="geometry">
            <mxPoint x="30" y="60" as="sourcePoint" />
            <mxPoint x="30" y="20" as="targetPoint" />
          </mxGeometry>
        </mxCell>
        <mxCell id="PhGYONGd7VdfMWZIVttG-37" value="" style="endArrow=none;html=1;rounded=0;shadow=0;" parent="PhGYONGd7VdfMWZIVttG-35" edge="1">
          <mxGeometry width="50" height="50" relative="1" as="geometry">
            <mxPoint x="30" y="60" as="sourcePoint" />
            <mxPoint x="60" y="50" as="targetPoint" />
          </mxGeometry>
        </mxCell>
        <mxCell id="PhGYONGd7VdfMWZIVttG-38" value="" style="endArrow=none;html=1;rounded=0;shadow=0;" parent="PhGYONGd7VdfMWZIVttG-35" edge="1">
          <mxGeometry width="50" height="50" relative="1" as="geometry">
            <mxPoint x="30" y="60" as="sourcePoint" />
            <mxPoint y="50" as="targetPoint" />
          </mxGeometry>
        </mxCell>
        <mxCell id="PhGYONGd7VdfMWZIVttG-39" value="" style="endArrow=none;html=1;rounded=0;shadow=0;" parent="PhGYONGd7VdfMWZIVttG-35" edge="1">
          <mxGeometry width="50" height="50" relative="1" as="geometry">
            <mxPoint y="50" as="sourcePoint" />
            <mxPoint y="10" as="targetPoint" />
          </mxGeometry>
        </mxCell>
        <mxCell id="PhGYONGd7VdfMWZIVttG-40" value="" style="endArrow=none;html=1;rounded=0;shadow=0;" parent="PhGYONGd7VdfMWZIVttG-35" edge="1">
          <mxGeometry width="50" height="50" relative="1" as="geometry">
            <mxPoint x="60" y="50" as="sourcePoint" />
            <mxPoint x="60" y="10" as="targetPoint" />
          </mxGeometry>
        </mxCell>
        <mxCell id="PhGYONGd7VdfMWZIVttG-41" value="" style="endArrow=none;html=1;rounded=0;shadow=0;" parent="PhGYONGd7VdfMWZIVttG-35" edge="1">
          <mxGeometry width="50" height="50" relative="1" as="geometry">
            <mxPoint x="30" y="20" as="sourcePoint" />
            <mxPoint x="60" y="10" as="targetPoint" />
          </mxGeometry>
        </mxCell>
        <mxCell id="PhGYONGd7VdfMWZIVttG-42" value="" style="endArrow=none;html=1;rounded=0;shadow=0;" parent="PhGYONGd7VdfMWZIVttG-35" edge="1">
          <mxGeometry width="50" height="50" relative="1" as="geometry">
            <mxPoint x="30" y="20" as="sourcePoint" />
            <mxPoint y="10" as="targetPoint" />
          </mxGeometry>
        </mxCell>
        <mxCell id="PhGYONGd7VdfMWZIVttG-43" value="" style="endArrow=none;html=1;rounded=0;shadow=0;" parent="PhGYONGd7VdfMWZIVttG-35" edge="1">
          <mxGeometry width="50" height="50" relative="1" as="geometry">
            <mxPoint x="60" y="10" as="sourcePoint" />
            <mxPoint x="30" as="targetPoint" />
          </mxGeometry>
        </mxCell>
        <mxCell id="PhGYONGd7VdfMWZIVttG-44" value="" style="endArrow=none;html=1;rounded=0;shadow=0;" parent="PhGYONGd7VdfMWZIVttG-35" edge="1">
          <mxGeometry width="50" height="50" relative="1" as="geometry">
            <mxPoint y="10" as="sourcePoint" />
            <mxPoint x="30" as="targetPoint" />
          </mxGeometry>
        </mxCell>
        <mxCell id="PhGYONGd7VdfMWZIVttG-46" value="&lt;font style=&quot;font-size: 15px;&quot;&gt;&amp;lt;&amp;lt;artifact&amp;gt;&amp;gt;&lt;/font&gt;" style="text;html=1;strokeColor=none;fillColor=none;align=center;verticalAlign=middle;whiteSpace=wrap;rounded=0;shadow=0;" parent="PhGYONGd7VdfMWZIVttG-95" vertex="1">
          <mxGeometry x="130" y="100" width="60" height="30" as="geometry" />
        </mxCell>
        <mxCell id="LqiUAsjQjknxK7UQbuIB-2" value="" style="group" vertex="1" connectable="0" parent="1">
          <mxGeometry x="40" y="560" width="320" height="220" as="geometry" />
        </mxCell>
        <mxCell id="PhGYONGd7VdfMWZIVttG-92" value="" style="group;shadow=0;fillColor=#B3B3B3;container=0;" parent="LqiUAsjQjknxK7UQbuIB-2" vertex="1" connectable="0">
          <mxGeometry width="320" height="220" as="geometry" />
        </mxCell>
        <mxCell id="PhGYONGd7VdfMWZIVttG-77" value="" style="rounded=0;whiteSpace=wrap;html=1;shadow=0;" parent="LqiUAsjQjknxK7UQbuIB-2" vertex="1">
          <mxGeometry width="320" height="220" as="geometry" />
        </mxCell>
        <mxCell id="PhGYONGd7VdfMWZIVttG-78" value="&lt;font style=&quot;font-size: 15px;&quot;&gt;&amp;lt;&amp;lt;device&amp;gt;&amp;gt;&lt;/font&gt;" style="text;html=1;strokeColor=none;fillColor=none;align=center;verticalAlign=middle;whiteSpace=wrap;rounded=0;shadow=0;" parent="LqiUAsjQjknxK7UQbuIB-2" vertex="1">
          <mxGeometry width="320" height="29.032258064516128" as="geometry" />
        </mxCell>
        <mxCell id="PhGYONGd7VdfMWZIVttG-79" value="&lt;span style=&quot;font-size: 19px;&quot;&gt;ReactApp&lt;/span&gt;" style="text;html=1;strokeColor=none;fillColor=none;align=center;verticalAlign=middle;whiteSpace=wrap;rounded=0;fontStyle=1;shadow=0;" parent="LqiUAsjQjknxK7UQbuIB-2" vertex="1">
          <mxGeometry y="38.70967741935482" width="320" height="29.032258064516128" as="geometry" />
        </mxCell>
        <mxCell id="PhGYONGd7VdfMWZIVttG-90" value="" style="rounded=0;whiteSpace=wrap;html=1;shadow=0;" parent="LqiUAsjQjknxK7UQbuIB-2" vertex="1">
          <mxGeometry x="100" y="104.51612903225805" width="160" height="96.7741935483871" as="geometry" />
        </mxCell>
        <mxCell id="PhGYONGd7VdfMWZIVttG-91" value="&lt;font style=&quot;font-size: 15px;&quot;&gt;&amp;lt;&amp;lt;artifact&amp;gt;&amp;gt;&lt;/font&gt;" style="text;html=1;strokeColor=none;fillColor=none;align=center;verticalAlign=middle;whiteSpace=wrap;rounded=0;shadow=0;" parent="LqiUAsjQjknxK7UQbuIB-2" vertex="1">
          <mxGeometry x="100" y="104.51612903225805" width="160" height="19.35483870967742" as="geometry" />
        </mxCell>
        <mxCell id="PhGYONGd7VdfMWZIVttG-80" value="" style="group;movable=1;resizable=1;rotatable=1;deletable=1;editable=1;locked=0;connectable=1;shadow=0;" parent="LqiUAsjQjknxK7UQbuIB-2" vertex="1" connectable="0">
          <mxGeometry x="250" y="14.51612903225805" width="60" height="58.064516129032256" as="geometry" />
        </mxCell>
        <mxCell id="PhGYONGd7VdfMWZIVttG-81" value="" style="endArrow=none;html=1;rounded=0;movable=0;resizable=0;rotatable=0;deletable=0;editable=0;locked=1;connectable=0;" parent="PhGYONGd7VdfMWZIVttG-80" edge="1">
          <mxGeometry width="50" height="50" relative="1" as="geometry">
            <mxPoint x="30" y="58.064516129032256" as="sourcePoint" />
            <mxPoint x="30" y="19.354838709677416" as="targetPoint" />
          </mxGeometry>
        </mxCell>
        <mxCell id="PhGYONGd7VdfMWZIVttG-82" value="" style="endArrow=none;html=1;rounded=0;shadow=0;" parent="PhGYONGd7VdfMWZIVttG-80" edge="1">
          <mxGeometry width="50" height="50" relative="1" as="geometry">
            <mxPoint x="30" y="58.064516129032256" as="sourcePoint" />
            <mxPoint x="60" y="48.387096774193544" as="targetPoint" />
          </mxGeometry>
        </mxCell>
        <mxCell id="PhGYONGd7VdfMWZIVttG-83" value="" style="endArrow=none;html=1;rounded=0;shadow=0;" parent="PhGYONGd7VdfMWZIVttG-80" edge="1">
          <mxGeometry width="50" height="50" relative="1" as="geometry">
            <mxPoint x="30" y="58.064516129032256" as="sourcePoint" />
            <mxPoint y="48.387096774193544" as="targetPoint" />
          </mxGeometry>
        </mxCell>
        <mxCell id="PhGYONGd7VdfMWZIVttG-84" value="" style="endArrow=none;html=1;rounded=0;shadow=0;" parent="PhGYONGd7VdfMWZIVttG-80" edge="1">
          <mxGeometry width="50" height="50" relative="1" as="geometry">
            <mxPoint y="48.387096774193544" as="sourcePoint" />
            <mxPoint y="9.677419354838708" as="targetPoint" />
          </mxGeometry>
        </mxCell>
        <mxCell id="PhGYONGd7VdfMWZIVttG-85" value="" style="endArrow=none;html=1;rounded=0;shadow=0;" parent="PhGYONGd7VdfMWZIVttG-80" edge="1">
          <mxGeometry width="50" height="50" relative="1" as="geometry">
            <mxPoint x="60" y="48.387096774193544" as="sourcePoint" />
            <mxPoint x="60" y="9.677419354838708" as="targetPoint" />
          </mxGeometry>
        </mxCell>
        <mxCell id="PhGYONGd7VdfMWZIVttG-86" value="" style="endArrow=none;html=1;rounded=0;shadow=0;" parent="PhGYONGd7VdfMWZIVttG-80" edge="1">
          <mxGeometry width="50" height="50" relative="1" as="geometry">
            <mxPoint x="30" y="19.354838709677416" as="sourcePoint" />
            <mxPoint x="60" y="9.677419354838708" as="targetPoint" />
          </mxGeometry>
        </mxCell>
        <mxCell id="PhGYONGd7VdfMWZIVttG-87" value="" style="endArrow=none;html=1;rounded=0;shadow=0;" parent="PhGYONGd7VdfMWZIVttG-80" edge="1">
          <mxGeometry width="50" height="50" relative="1" as="geometry">
            <mxPoint x="30" y="19.354838709677416" as="sourcePoint" />
            <mxPoint y="9.677419354838708" as="targetPoint" />
          </mxGeometry>
        </mxCell>
        <mxCell id="PhGYONGd7VdfMWZIVttG-88" value="" style="endArrow=none;html=1;rounded=0;shadow=0;" parent="PhGYONGd7VdfMWZIVttG-80" edge="1">
          <mxGeometry width="50" height="50" relative="1" as="geometry">
            <mxPoint x="60" y="9.677419354838708" as="sourcePoint" />
            <mxPoint x="30" as="targetPoint" />
          </mxGeometry>
        </mxCell>
        <mxCell id="PhGYONGd7VdfMWZIVttG-89" value="" style="endArrow=none;html=1;rounded=0;shadow=0;" parent="PhGYONGd7VdfMWZIVttG-80" edge="1">
          <mxGeometry width="50" height="50" relative="1" as="geometry">
            <mxPoint y="9.677419354838708" as="sourcePoint" />
            <mxPoint x="30" as="targetPoint" />
          </mxGeometry>
        </mxCell>
        <mxCell id="PhGYONGd7VdfMWZIVttG-97" value="" style="endArrow=none;html=1;rounded=0;exitX=0;exitY=0;exitDx=0;exitDy=0;entryX=0.188;entryY=0.484;entryDx=0;entryDy=0;entryPerimeter=0;" parent="LqiUAsjQjknxK7UQbuIB-2" source="PhGYONGd7VdfMWZIVttG-90" edge="1">
          <mxGeometry width="50" height="50" relative="1" as="geometry">
            <mxPoint x="60" y="119.0322580645161" as="sourcePoint" />
            <mxPoint x="60.15999999999997" y="85.19999999999993" as="targetPoint" />
          </mxGeometry>
        </mxCell>
        <mxCell id="PhGYONGd7VdfMWZIVttG-98" value="" style="endArrow=none;html=1;rounded=0;exitX=0;exitY=0;exitDx=0;exitDy=0;entryX=0.188;entryY=0.484;entryDx=0;entryDy=0;entryPerimeter=0;" parent="LqiUAsjQjknxK7UQbuIB-2" edge="1">
          <mxGeometry width="50" height="50" relative="1" as="geometry">
            <mxPoint x="100" y="201.29032258064512" as="sourcePoint" />
            <mxPoint x="60" y="181.9354838709678" as="targetPoint" />
          </mxGeometry>
        </mxCell>
        <mxCell id="PhGYONGd7VdfMWZIVttG-99" value="" style="endArrow=none;html=1;rounded=0;" parent="LqiUAsjQjknxK7UQbuIB-2" edge="1">
          <mxGeometry width="50" height="50" relative="1" as="geometry">
            <mxPoint x="60" y="181.9354838709678" as="sourcePoint" />
            <mxPoint x="60" y="85.16129032258061" as="targetPoint" />
          </mxGeometry>
        </mxCell>
        <mxCell id="PhGYONGd7VdfMWZIVttG-100" value="" style="endArrow=none;html=1;rounded=0;" parent="LqiUAsjQjknxK7UQbuIB-2" edge="1">
          <mxGeometry width="50" height="50" relative="1" as="geometry">
            <mxPoint x="60" y="85.16129032258061" as="sourcePoint" />
            <mxPoint x="220" y="85.16129032258061" as="targetPoint" />
          </mxGeometry>
        </mxCell>
        <mxCell id="PhGYONGd7VdfMWZIVttG-101" value="" style="endArrow=none;html=1;rounded=0;exitX=0;exitY=0;exitDx=0;exitDy=0;entryX=0.188;entryY=0.484;entryDx=0;entryDy=0;entryPerimeter=0;" parent="LqiUAsjQjknxK7UQbuIB-2" edge="1">
          <mxGeometry width="50" height="50" relative="1" as="geometry">
            <mxPoint x="260" y="104.51612903225805" as="sourcePoint" />
            <mxPoint x="220" y="85.16129032258061" as="targetPoint" />
          </mxGeometry>
        </mxCell>
        <mxCell id="LqiUAsjQjknxK7UQbuIB-9" value="" style="rounded=0;whiteSpace=wrap;html=1;fillColor=default;" vertex="1" parent="LqiUAsjQjknxK7UQbuIB-2">
          <mxGeometry x="127" y="146" width="108" height="50" as="geometry" />
        </mxCell>
        <mxCell id="LqiUAsjQjknxK7UQbuIB-8" value="Web Browser" style="text;html=1;strokeColor=none;fillColor=none;align=center;verticalAlign=middle;whiteSpace=wrap;rounded=0;fontStyle=1" vertex="1" parent="LqiUAsjQjknxK7UQbuIB-2">
          <mxGeometry x="100" y="117" width="158" height="30" as="geometry" />
        </mxCell>
        <mxCell id="PhGYONGd7VdfMWZIVttG-102" value="index.js&lt;br&gt;index.css&lt;br&gt;index.html" style="text;html=1;strokeColor=none;fillColor=none;align=center;verticalAlign=middle;whiteSpace=wrap;rounded=0;fontStyle=1" parent="LqiUAsjQjknxK7UQbuIB-2" vertex="1">
          <mxGeometry x="127" y="147" width="107" height="48" as="geometry" />
        </mxCell>
        <mxCell id="LqiUAsjQjknxK7UQbuIB-3" value="" style="endArrow=none;dashed=1;html=1;rounded=0;exitX=1;exitY=0.5;exitDx=0;exitDy=0;entryX=0;entryY=0.5;entryDx=0;entryDy=0;" edge="1" parent="1" source="PhGYONGd7VdfMWZIVttG-1" target="PhGYONGd7VdfMWZIVttG-32">
          <mxGeometry width="50" height="50" relative="1" as="geometry">
            <mxPoint x="390" y="280" as="sourcePoint" />
            <mxPoint x="440" y="230" as="targetPoint" />
          </mxGeometry>
        </mxCell>
        <mxCell id="LqiUAsjQjknxK7UQbuIB-4" value="" style="endArrow=none;dashed=1;html=1;rounded=0;exitX=0.5;exitY=1;exitDx=0;exitDy=0;entryX=0.5;entryY=0;entryDx=0;entryDy=0;" edge="1" parent="1" source="PhGYONGd7VdfMWZIVttG-1" target="PhGYONGd7VdfMWZIVttG-78">
          <mxGeometry width="50" height="50" relative="1" as="geometry">
            <mxPoint x="420" y="550" as="sourcePoint" />
            <mxPoint x="470" y="500" as="targetPoint" />
          </mxGeometry>
        </mxCell>
        <mxCell id="LqiUAsjQjknxK7UQbuIB-5" value="&lt;font style=&quot;font-size: 26px;&quot;&gt;port 5050&lt;/font&gt;" style="edgeLabel;html=1;align=center;verticalAlign=middle;resizable=0;points=[];" vertex="1" connectable="0" parent="LqiUAsjQjknxK7UQbuIB-4">
          <mxGeometry x="-0.1832" y="2" relative="1" as="geometry">
            <mxPoint x="-2" y="3" as="offset" />
          </mxGeometry>
        </mxCell>
        <mxCell id="LqiUAsjQjknxK7UQbuIB-6" value="&lt;font style=&quot;font-size: 26px;&quot;&gt;port 5432&lt;/font&gt;" style="edgeLabel;html=1;align=center;verticalAlign=middle;resizable=0;points=[];" vertex="1" connectable="0" parent="1">
          <mxGeometry x="440" y="255" as="geometry" />
        </mxCell>
      </root>
    </mxGraphModel>
  </diagram>
</mxfile>
